#N canvas 4 22 666 410 12;
#X obj 12 31 inlet;
#X obj 12 95 sel 1 0;
#X obj 12 189 f;
#X obj 82 71 inlet;
#X obj 12 223 pack f f f;
#X obj 152 101 inlet;
#X obj 222 141 inlet;
#X obj 302 181 inlet;
#X obj 284 223 f;
#X text 12 11 Entrada-1: Gate;
#X text 152 81 Entrada-3: Decay;
#X text 82 51 Entrada-2: Attack;
#X text 222 121 Entrada-4: Sustain;
#X text 302 161 Entrada-5: Release;
#X msg 284 247 0 \$1;
#X msg 12 257 1 \$1 \, \$3 \$2 \$1;
#X obj 284 296 vline~;
#X obj 284 330 *~;
#X obj 284 364 outlet~;
#X text 334 296 <- Generador de envolvente;
#X text 314 330 <- Cambia a una curva logarítmica (más natural);
#X text 344 364 <- Salida-1: Envolvente;
#X connect 0 0 1 0;
#X connect 1 0 2 0;
#X connect 1 1 8 0;
#X connect 2 0 4 0;
#X connect 3 0 2 1;
#X connect 4 0 15 0;
#X connect 5 0 4 1;
#X connect 6 0 4 2;
#X connect 7 0 8 1;
#X connect 8 0 14 0;
#X connect 14 0 16 0;
#X connect 15 0 16 0;
#X connect 16 0 17 0;
#X connect 16 0 17 1;
#X connect 17 0 18 0;
