#N canvas 0 22 1920 1036 10;
#X obj 12 49 inlet;
#X obj 142 49 inlet;
#X obj 232 49 inlet;
#X obj 312 49 inlet;
#X obj 402 49 inlet;
#X text 12 29 (I1) Note On/Off;
#X obj 12 70 sel 1 0;
#X text 142 29 (I2) Attack;
#X text 232 29 (I3) Decay;
#X text 312 29 (I4) Sustain;
#X text 402 29 (I5) Release;
#X obj 142 70 max 1;
#X obj 232 70 max 1;
#X obj 402 70 max 1;
#X obj 142 91 s \$0-attack;
#X obj 232 91 s \$0-decay;
#X obj 312 70 clip 0 1;
#X obj 312 91 s \$0-sustain;
#X obj 402 91 s \$0-release;
#X obj 115 315 f;
#X obj 130 289 r \$0-attack;
#X obj 144 331 r \$0-decay;
#X obj 115 383 pack f f f;
#X obj 172 357 r \$0-sustain;
#X msg 115 404 1 \$1 \, \$3 \$2 \$1;
#X obj 115 425 vline~;
#X obj 305 315 f;
#X obj 12 112 s \$0-noteOn;
#X obj 31 91 s \$0-noteOff;
#X obj 320 289 r \$0-release;
#X obj 305 254 r \$0-noteOff;
#X obj 115 254 r \$0-noteOn;
#X msg 305 336 0 \$1;
#X obj 115 446 *~;
#X obj 115 467 outlet~;
#X connect 0 0 6 0;
#X connect 1 0 11 0;
#X connect 2 0 12 0;
#X connect 3 0 16 0;
#X connect 4 0 13 0;
#X connect 6 0 27 0;
#X connect 6 1 28 0;
#X connect 11 0 14 0;
#X connect 12 0 15 0;
#X connect 13 0 18 0;
#X connect 16 0 17 0;
#X connect 19 0 22 0;
#X connect 20 0 19 1;
#X connect 21 0 22 1;
#X connect 22 0 24 0;
#X connect 23 0 22 2;
#X connect 24 0 25 0;
#X connect 25 0 33 0;
#X connect 25 0 33 1;
#X connect 26 0 32 0;
#X connect 29 0 26 1;
#X connect 30 0 26 0;
#X connect 31 0 19 0;
#X connect 32 0 25 0;
#X connect 33 0 34 0;
