#N canvas 589 329 707 300 10;
#X obj 514 33 loadbang;
#X obj 514 75 array set \$0-scale;
#X obj 12 185 tabread \$0-scale;
#X obj 12 211 +;
#X obj 122 195 * 12;
#X obj 12 143 t f f;
#X obj 12 70 unpack f f;
#X obj 12 232 + 45;
#X obj 157 86 sel 1;
#X obj 184 133 outlet;
#X obj 12 258 outlet;
#X obj 324 53 text define -k \$0-key;
#A set 122 \; 120 \; 99 \; 118 \; 98 \; 110 \; 109 \; 97 \; 115 \;
100 \; 102 \; 103 \; 104 \; 106 \; 107 \; 108 \; 113 \; 119 \; 101
\; 114 \; 116 \; 121 \; 117 \; 105 \; 111 \; 112 \;;
#X obj 324 73 text define -k \$0-key-order;
#A set 7 \; 4 \; 2 \; 9 \; 18 \; 10 \; 11 \; 12 \; 23 \; 13 \; 14 \;
15 \; 6 \; 5 \; 24 \; 25 \; 16 \; 19 \; 8 \; 20 \; 22 \; 3 \; 17 \;
1 \; 21 \; 0 \;;
#X obj 12 117 text get \$0-key-order;
#X obj 12 96 - 97;
#X text 324 13 // Define arrays;
#N canvas 467 533 203 201 generate-key-order 0;
#X msg 12 12 26;
#X obj 12 33 until;
#X obj 12 54 i;
#X obj 12 75 % 26;
#X obj 42 54 + 1;
#X obj 12 118 + 97;
#X obj 12 96 t f f;
#X obj 12 139 text search \$0-key;
#X obj 12 160 text set \$0-key-order;
#X connect 0 0 1 0;
#X connect 1 0 2 0;
#X connect 2 0 3 0;
#X connect 3 0 4 0;
#X connect 3 0 6 0;
#X connect 4 0 2 1;
#X connect 5 0 7 0;
#X connect 6 0 5 0;
#X connect 6 1 8 1;
#X connect 7 0 8 0;
#X restore 324 103 pd generate-key-order;
#X text 12 278 (O1) MIDI-Note;
#X text 184 153 (O2) Velocity;
#X msg 157 107 100;
#X obj 12 28 clone -s 97 key.tgl 26;
#X obj 12 164 % 7;
#X obj 122 159 div 7;
#X text 514 13 // Set Major Scale;
#X msg 514 54 0 2 4 5 7 9 11;
#X obj 324 33 array define -k \$0-scale 7;
#A 0 0 2 4 5 7 9 11;
#X connect 0 0 24 0;
#X connect 2 0 3 0;
#X connect 3 0 7 0;
#X connect 4 0 3 1;
#X connect 5 0 21 0;
#X connect 5 1 22 0;
#X connect 6 0 14 0;
#X connect 6 1 8 0;
#X connect 7 0 10 0;
#X connect 8 0 19 0;
#X connect 8 1 9 0;
#X connect 13 0 5 0;
#X connect 14 0 13 0;
#X connect 19 0 9 0;
#X connect 20 0 6 0;
#X connect 21 0 2 0;
#X connect 22 0 4 0;
#X connect 24 0 1 0;
