#N canvas 478 201 378 437 12;
#X obj 172 12 notein;
#X obj 92 109 list prepend;
#X obj 191 51 > 0;
#X obj 115 230 > 0;
#X obj 115 254 change;
#X obj 115 278 outlet;
#X obj 92 51 t f f;
#X obj 173 80 *;
#X obj 138 177 tabwrite \$0-note;
#X obj 115 206 array sum \$0-note;
#X obj 158 148 array define \$0-note 127;
#X obj 12 351 sel 0;
#X obj 44 375 outlet;
#X text 165 278 <- Output-2: Gate;
#X text 94 375 <- Output-1: MIDI Note;
#X obj 12 327 array max \$0-note;
#X obj 92 148 t b b l;
#X connect 0 0 6 0;
#X connect 0 1 2 0;
#X connect 1 0 16 0;
#X connect 2 0 7 1;
#X connect 3 0 4 0;
#X connect 4 0 5 0;
#X connect 6 0 1 0;
#X connect 6 1 7 0;
#X connect 7 0 1 1;
#X connect 9 0 3 0;
#X connect 11 1 12 0;
#X connect 15 0 11 0;
#X connect 16 0 15 0;
#X connect 16 1 9 0;
#X connect 16 2 8 0;
