#N canvas 478 201 701 364 12;
#X obj 12 91 inlet~;
#X obj 12 235 *~;
#X obj 82 91 inlet~;
#X obj 82 235 *~;
#X obj 152 91 inlet~;
#X obj 152 235 *~;
#X obj 112 299 outlet~;
#X obj 212 91 inlet;
#X obj 212 115 t f f f f;
#X obj 30 206 == 0;
#X obj 100 206 == 1;
#X obj 170 206 == 2;
#X text 112 319 Salida: Audio;
#X text 212 71 Entrada 4: Selector;
#X text 12 71 Entrada 1 a 3: Audio;
#X text 210 216 <- Multiplica por 1 o 0 dependiendo de la señal elegida
;
#X text 12 11 [multiplexer~];
#X text 12 31 [multiplexer~];
#X connect 0 0 1 0;
#X connect 1 0 6 0;
#X connect 2 0 3 0;
#X connect 3 0 6 0;
#X connect 4 0 5 0;
#X connect 5 0 6 0;
#X connect 7 0 8 0;
#X connect 8 0 9 0;
#X connect 8 1 10 0;
#X connect 8 2 11 0;
#X connect 9 0 1 1;
#X connect 10 0 3 1;
#X connect 11 0 5 1;
