#N canvas 68 96 1280 756 12;
#X declare -path ./abs;
#X obj 166 13 cnv 10 366 168 empty empty empty 20 12 0 14 #75d5ff #404040
0;
#X obj 515 184 cnv 10 190 170 empty empty empty 20 12 0 14 #bbbbbb
#404040 0;
#X obj 13 184 cnv 10 368 170 empty empty empty 20 12 0 14 #72fa78 #404040
0;
#X obj 384 184 cnv 10 128 170 empty empty empty 20 12 0 14 #ff7d78
#404040 0;
#X obj 13 13 cnv 10 150 168 empty empty empty 20 12 0 14 #ffd478 #404040
0;
#X obj 535 13 cnv 10 170 168 empty empty empty 20 12 0 14 #ff84ff #404040
0;
#X obj 353 53 hradio 19 1 1 3 \$0-waveform-1 empty Waveform 0 -8 0
12 #404040 #ffffff #000000 0;
#X obj 173 53 hradio 19 1 1 5 \$0-octave-1 empty Octave 0 -8 0 12 #404040
#ffffff #000000 2;
#X obj 283 53 nbx 4 19 -1200 1200 0 1 \$0-tune-1 empty Tune 0 -8 0
12 #404040 #ffffff #000000 0 256;
#X obj 426 53 hsl 101 19 0.01 0.99 0 1 \$0-pulse-1 empty Pulse\\\ Width
-2 -8 0 12 #404040 #ffffff #000000 6000 1;
#X obj 546 53 hsl 101 19 0 1 0 1 \$0-level-1 empty Level -2 -8 0 12
#404040 #ffffff #000000 10000 1;
#X obj 353 103 hradio 19 1 1 3 \$0-waveform-2 empty Waveform 0 -8 0
12 #404040 #ffffff #000000 0;
#X obj 173 103 hradio 19 1 1 5 \$0-octave-2 empty Octave 0 -8 0 12
#404040 #ffffff #000000 1;
#X obj 283 103 nbx 4 19 -1200 1200 0 1 \$0-tune-2 empty Tune 0 -8 0
12 #404040 #ffffff #000000 15 256;
#X obj 426 103 hsl 101 19 0.01 0.99 0 1 \$0-pulse-2 empty Pulse\\\ Width
-2 -8 0 12 #404040 #ffffff #000000 5900 1;
#X obj 546 103 hsl 101 19 0 1 0 1 \$0-level-2 empty Level -2 -8 0 12
#404040 #ffffff #000000 10000 1;
#X obj 353 153 hradio 19 1 1 3 \$0-waveform-3 empty Waveform 0 -8 0
12 #404040 #ffffff #000000 2;
#X obj 173 153 hradio 19 1 1 5 \$0-octave-3 empty Octave 0 -8 0 12
#404040 #ffffff #000000 0;
#X obj 283 153 nbx 4 19 -1200 1200 0 1 \$0-tune-3 empty Tune 0 -8 0
12 #404040 #ffffff #000000 54 256;
#X obj 426 153 hsl 101 19 0.01 0.99 0 1 \$0-pulse-3 empty Pulse\\\ Width
-2 -8 0 12 #404040 #ffffff #000000 0 1;
#X obj 546 153 hsl 101 19 0 1 0 1 \$0-level-3 empty Level -2 -8 0 12
#404040 #ffffff #000000 0 1;
#X obj 26 223 hsl 101 19 45 121 0 1 \$0-cutoff empty Cutoff -2 -8 0
12 #404040 #ffffff #000000 3900 1;
#X obj 146 223 hsl 101 19 0 4 0 1 \$0-resonance empty Resonance -2
-8 0 12 #404040 #ffffff #000000 5200 1;
#X obj 266 223 hsl 101 19 0 121 0 1 \$0-envAmount empty Env.\\\ Amount
-2 -8 0 12 #404040 #ffffff #000000 3200 1;
#X obj 26 263 hsl 101 19 1 5000 1 1 \$0-modAttack empty Attack -2 -8
0 12 #404040 #ffffff #000000 3700 1;
#X obj 146 263 hsl 101 19 10 10000 1 1 \$0-modDecay empty Decay\\\ &\\\ Rel.
-2 -8 0 12 #404040 #ffffff #000000 4000 1;
#X obj 266 263 hsl 101 19 0 1 0 1 \$0-modSustain empty Sustain -2 -8
0 12 #404040 #ffffff #000000 7400 1;
#X obj 26 323 hsl 101 19 1 5000 1 1 \$0-attack empty Attack -2 -8 0
12 #404040 #ffffff #000000 3700 1;
#X obj 146 323 hsl 101 19 10 10000 1 1 \$0-decay empty Decay\\\ &\\\ Rel.
-2 -8 0 12 #404040 #ffffff #000000 5400 1;
#X obj 266 323 hsl 101 19 0 1 0 1 \$0-sustain empty Sustain -2 -8 0
12 #404040 #ffffff #000000 5900 1;
#X text 22 285 Amp. Env –––––––––––––––––––––––––––––––––––––––––
;
#X text 22 185 Filter –––––––––––––––––––––––––––––––––––––––––––
;
#X text 172 15 Oscillator Bank ––––––––––––––––––––––––––––––––––
;
#X obj 660 61 vsl 19 101 0 1 0 0 \$0-noise empty Noise 0 -9 0 12 #404040
#ffffff #000000 0 1;
#X text 542 15 Mixer ––––––––––––––––
;
#X obj 26 133 hsl 101 19 0 1 0 1 \$0-modMix empty Mod\\\ Mix:\\\ OSC3/Noise
-2 -8 0 12 #404040 #ffffff #000000 0 1;
#X obj 26 93 hsl 101 19 0 1 0 1 \$0-modAmount empty Mod\\\ Amount -2
-8 0 12 #404040 #ffffff #000000 1000 1;
#X obj 527 223 hsl 101 19 0 1 0 1 \$0-volume empty Volume -2 -8 0 12
#404040 #ffffff #000000 8100 1;
#X obj 527 263 hsl 101 19 1 100 1 1 \$0-drive empty Drive -2 -8 0 12
#404040 #ffffff #000000 3100 1;
#X obj 23 53 tgl 19 1 \$0-oscMod empty Osc\\\ Mod 0 -8 0 12 #ffc7c6
#000000 #000000 1 1;
#X obj 83 53 tgl 19 1 \$0-filterMod empty Filter\\\ Mod 0 -8 0 12 #ffc7c6
#000000 #000000 0 1;
#X obj 173 126 tgl 11 1 \$0-osc3Control empty Osc\\\ 3\\\ Control 15
5 0 10 #ffc7c6 #000000 #000000 0 1;
#X obj 395 223 hsl 101 19 0 1 0 1 \$0-delayLevel empty Level -2 -8
0 12 #404040 #ffffff #000000 6100 1;
#X obj 395 263 hsl 101 19 30 3000 1 1 \$0-delayTime empty Delay\\\ Time
-2 -8 0 12 #404040 #ffffff #000000 4100 1;
#X text 391 185 Delay –––––––––;
#X text 523 185 Output –––––––––;
#X obj 527 303 hsl 101 19 10000 1 1 1 \$0-glide empty Glide -2 -8 0
12 #404040 #ffffff #000000 0 1;
#X text 22 15 Modulation ––––––––;
#X obj 395 303 hsl 101 19 0 0.9999 0 1 \$0-feedback empty Feedback
-2 -8 0 12 #404040 #ffffff #000000 7000 1;
#X obj 730 327 cnv 10 380 80 empty empty MEZCLADORA 290 10 0 14 #ff89d8
#000000 0;
#X obj 729 513 cnv 10 380 60 empty empty DELAY 330 10 0 14 #ff7d78
#000000 0;
#X obj 728 10 cnv 10 380 180 empty empty TECLADO 310 10 0 14 #feffc6
#000000 0;
#X obj 23 444 declare -path ./abs;
#X obj 820 362 cnv 10 290 45 empty empty MODULACION 200 10 0 14 #ffd478
#000000 0;
#X obj 730 410 cnv 10 380 100 empty empty FILTRO\\\ Y\\\ ENVs 265 10
0 14 #72fa78 #000000 0;
#X obj 729 224 cnv 10 380 100 empty empty OSCILADORES 280 10 0 14 #75d5ff
#000000 0;
#X obj 743 111 mono.in;
#X obj 743 169 send \$0-pitch;
#X obj 789 140 send \$0-gate;
#N canvas 4 22 832 756 oscillator-1 0;
#X obj 11 568 cnv 10 500 125 empty empty empty 20 12 0 14 #75d5ff #404040
0;
#X obj 18 575 oscillator~;
#X obj 18 658 multiplexer~;
#X obj 18 381 +~;
#X obj 36 264 receive \$0-octave-1;
#X obj 36 288 - 2;
#X obj 36 312 * 12;
#X obj 36 336 sig~;
#X obj 228 314 receive \$0-tune-1;
#X obj 228 362 pack f 20;
#X obj 228 386 line~;
#X obj 18 405 +~;
#X obj 18 458 mtof~;
#X obj 77 498 receive \$0-pulse-1;
#X obj 77 522 pack f 20;
#X obj 77 546 line~;
#X obj 18 429 +~;
#X obj 228 338 / 100;
#X text 36 224 // Recibe la info de los controles de octave y tune
para afinar el oscilador usando octavas y cents.;
#X text 78 338 convierte a cents ->;
#X text 68 313 <- convierte a octava;
#X obj 99 629 receive \$0-waveform-1;
#X text 217 498 <- Cambia el ancho de pulso de la onda cuadrada;
#X text 108 575 <- Oscilador tipo polyBLEP libre de Aliasing (suena
más análogo);
#X text 108 658 <- multiplexor: Entran tres señales y eliges cuál
quieres que salga.;
#X text 68 458 <- Convierte valores MIDI a frecuencia (Hz);
#X obj 11 8 cnv 10 450 85 empty empty empty 20 12 0 14 #75d5ff #404040
0;
#X obj 18 101 receive \$0-pitch;
#X obj 18 155 lop~;
#X obj 43 131 receive \$0-glide;
#X text 58 155 <- [lop~] puede ser usado como un [line~] pero la manera
en la que conecta los valores es más logarítmico.;
#X text 168 101 <- Recibe la información del pitch (en MIDI) y crea
un portamento \, glissando o "glide" de la nota usando [lop~];
#X text 18 11 Oscilador;
#X obj 357 309 cnv 10 455 140 empty empty empty 200 10 0 14 #ffd478
#000000 0;
#X obj 361 352 receive~ \$0-modulation;
#X obj 361 410 *~;
#X obj 379 381 receive \$0-oscMod;
#X text 361 312 // Recibe la señal del modulador y prende/apaga usando
el toggle de "oscMod";
#X text 391 410 <- Este tipo de modulación es exponencial por sumarse
antes del mtof~;
#X obj 11 696 cnv 10 380 40 empty empty empty 290 10 0 14 #ff89d8 #000000
0;
#X obj 18 707 outlet~;
#X text 78 707 <- Salida de Oscilador hacia mezcladora;
#X text 518 555 [oscillator~];
#X text 528 575 Entrada-1: Frecuencia en Hz;
#X text 528 595 Entrada-2: Pulso de forma de onda cuadrada;
#X text 538 615 (0 a 1);
#X text 528 635 Salida-1: Diente de Sierra;
#X text 528 655 Salida-2: Onda Cuadrada;
#X text 528 675 Salida-3: Onda Triangular;
#X text 18 31 De manera general \, lo que sucede es que recibimos todos
los controles de afinación y control de pitch del oscilador para luego
enviar las tres formas del oscilador a un multiplexor (selector de
onda) y para luego enviarlas a la mezcladora.;
#X text 228 284 // Tune (-1200 a 1200 cents);
#X connect 1 0 2 0;
#X connect 1 1 2 1;
#X connect 1 2 2 2;
#X connect 2 0 40 0;
#X connect 3 0 11 0;
#X connect 4 0 5 0;
#X connect 5 0 6 0;
#X connect 6 0 7 0;
#X connect 7 0 3 1;
#X connect 8 0 17 0;
#X connect 9 0 10 0;
#X connect 10 0 11 1;
#X connect 11 0 16 0;
#X connect 12 0 1 0;
#X connect 13 0 14 0;
#X connect 14 0 15 0;
#X connect 15 0 1 1;
#X connect 16 0 12 0;
#X connect 17 0 9 0;
#X connect 21 0 2 3;
#X connect 27 0 28 0;
#X connect 28 0 3 0;
#X connect 29 0 28 1;
#X connect 34 0 35 0;
#X connect 35 0 16 1;
#X connect 36 0 35 1;
#X restore 738 240 pd oscillator-1;
#X obj 831 333 noise~;
#N canvas 2 22 522 555 modEnvelope 0;
#X obj 21 11 cnv 10 450 60 empty empty empty 265 10 0 14 #72fa78 #000000
0;
#X obj 39 186 receive \$0-modAttack;
#X obj 26 116 receive \$0-gate;
#X obj 52 213 receive \$0-modDecay;
#X obj 52 237 t f f;
#X obj 65 266 receive \$0-modSustain;
#X obj 26 473 *~;
#X obj 64 386 receive \$0-envAmount;
#X obj 64 410 pack f 20;
#X obj 64 434 line~;
#X obj 26 507 outlet~;
#X text 26 36 Envolvente dedicado a modular la frecuencia de corte
del filtro.;
#X text 64 346 //Recibe la cantidad de modulacion en notas MIDI \;
(de 0 a 211) traducido a (0 Hz a 8.8 kHz);
#X text 39 146 // Recibe los controles del envolvente \, en el minimoog
el control de Decay y Release es el mismo.;
#X text 26 16 Mod. Envelope;
#X obj 11 299 cnv 10 400 30 empty empty empty 265 10 0 14 #72fa78 #000000
0;
#X obj 26 304 en.adsr~;
#X text 96 304 <- Generador de envolvente tipo ADSR.;
#X text 86 507 <- Salida del envolvente a modular el filtro.;
#X text 26 76 // Recibe el gate del control del teclado para activar
el envolvente. 1 = Encencido \, 0 = Apagado;
#X text 217 178 [en.adsr~];
#X text 227 198 Entrada-1: Gate (0/1);
#X text 227 218 Entrada-2: Ataque en milisegundos;
#X text 227 238 Entrada-3: Decay en milisegundos;
#X text 227 258 Entrada-4: Sustain en amplitud de 0 a 1;
#X text 227 278 Entrada-5: Release en milisegundos;
#X connect 1 0 16 1;
#X connect 2 0 16 0;
#X connect 3 0 4 0;
#X connect 4 0 16 2;
#X connect 4 1 16 4;
#X connect 5 0 16 3;
#X connect 6 0 10 0;
#X connect 7 0 8 0;
#X connect 8 0 9 0;
#X connect 9 0 6 1;
#X connect 16 0 6 0;
#X restore 798 425 pd modEnvelope;
#N canvas 12 25 1045 450 mixer 0;
#X obj 7 10 cnv 10 410 60 empty empty empty 310 10 0 14 #ff89d8 #000000
0;
#X obj 12 261 *~;
#X obj 40 184 pow 2;
#X obj 40 208 pack f 20;
#X obj 40 232 line~;
#X obj 182 261 *~;
#X obj 210 184 pow 2;
#X obj 210 208 pack f 20;
#X obj 210 232 line~;
#X obj 352 261 *~;
#X obj 380 184 pow 2;
#X obj 380 208 pack f 20;
#X obj 380 232 line~;
#X obj 380 160 receive \$0-level-3;
#X obj 40 160 receive \$0-level-1;
#X obj 210 160 receive \$0-level-2;
#X obj 274 315 +~;
#X obj 274 339 /~ 4;
#X obj 522 261 *~;
#X obj 550 184 pow 2;
#X obj 550 208 pack f 20;
#X obj 550 232 line~;
#X obj 522 101 inlet~;
#X obj 550 160 receive \$0-noise;
#X text 522 81 Entrada-4: White Noise;
#X text 550 140 // Recibe el valor de volumen del slider (de 0 a 1)
;
#X text 630 184 <- Este objeto crea una curva de volumen logaritmica
(mas natural al oyente);
#X text 620 218 <- Suaviza los valores escalonados con un valor de
20 ms para evitar clicks.;
#X text 313 325 <- Suma todas las señales y dividelo entre el numero
total de señales (En este caso 4). Esto para "normalizar" la señal
entrante y que no distorsione.;
#X text 12 11 Mixer;
#X text 12 31 Aquí controlamos el nivel individual de cada oscilador
y ruido para luego sumarlo y enviarlo a al filtro.;
#X obj 7 76 cnv 10 510 50 empty empty empty 20 12 0 14 #75d5ff #404040
0;
#X obj 12 101 inlet~;
#X obj 182 101 inlet~;
#X obj 352 101 inlet~;
#X text 12 81 Entrada-1: Oscilador-1;
#X text 182 81 Entrada-2: Oscilador-2;
#X text 352 81 Entrada-3: Oscilador-3;
#X obj 261 373 cnv 10 380 50 empty empty empty 265 10 0 14 #72fa78
#000000 0;
#X obj 274 383 outlet~;
#X text 334 383 <- Salida de mezcladora hacia el filtro;
#X connect 1 0 16 0;
#X connect 2 0 3 0;
#X connect 3 0 4 0;
#X connect 4 0 1 1;
#X connect 5 0 16 1;
#X connect 6 0 7 0;
#X connect 7 0 8 0;
#X connect 8 0 5 1;
#X connect 9 0 16 1;
#X connect 10 0 11 0;
#X connect 11 0 12 0;
#X connect 12 0 9 1;
#X connect 13 0 10 0;
#X connect 14 0 2 0;
#X connect 15 0 6 0;
#X connect 16 0 17 0;
#X connect 17 0 39 0;
#X connect 18 0 16 1;
#X connect 19 0 20 0;
#X connect 20 0 21 0;
#X connect 21 0 18 1;
#X connect 22 0 18 0;
#X connect 23 0 19 0;
#X connect 32 0 1 0;
#X connect 33 0 5 0;
#X connect 34 0 9 0;
#X restore 738 365 pd mixer;
#N canvas 5 22 877 631 filter 0;
#X obj 73 201 receive \$0-cutoff;
#X obj 73 225 pack f 20;
#X obj 73 249 line~;
#X obj 73 283 +~;
#X obj 166 264 inlet~;
#X obj 73 307 +~;
#X obj 73 331 mtof~;
#X obj 126 407 receive \$0-resonance;
#X obj 126 431 pack f 20;
#X obj 126 455 line~;
#X obj 61 586 outlet~;
#X obj 73 355 clip~ 20 17000;
#X text 166 244 Entrada-2: Mod Envelope;
#X text 73 161 // Recibe control de cutoff de 45 a 121 MIDI;
#X text 73 181 Esto se traduce a 110 Hz a 8.8 kHz;
#X text 183 375 De lo contrario [bob~] distorsiona;
#X text 183 355 <- Limitamos la frecuencia de 20 Hz a 17 kHz;
#X text 276 407 <- Recibe el control de resonancia de 0 a 4;
#X text 276 427 A partir de 4 el filtro empieza a oscilar.;
#X text 123 331 <- Convierte de MIDI a frecuencia;
#X obj 394 185 cnv 10 455 140 empty empty empty 200 10 0 14 #ffd478
#000000 0;
#X obj 399 230 receive~ \$0-modulation;
#X obj 399 288 *~;
#X obj 417 259 receive \$0-filterMod;
#X text 399 190 // Recibe la señal del modulador y prende/apaga usando
el toggle de "filterMod";
#X text 429 288 <- Este tipo de modulación es exponencial por sumarse
antes del mtof~;
#X text 121 586 <- Salida del Filtro hacia el amp Env;
#X obj 51 485 cnv 10 390 90 empty empty empty 265 10 0 14 #72fa78 #000000
0;
#X obj 61 494 bob~;
#X obj 11 11 cnv 10 450 100 empty empty empty 265 10 0 14 #72fa78 #000000
0;
#X obj 21 141 inlet~;
#X text 111 514 Entrada-1: Audio a filtrar;
#X text 111 534 Entrada-2: Frecuencia de corte en Hz;
#X text 21 21 Filter;
#X text 101 494 <– Filtro tipo "Moog";
#X text 111 554 Entrada-3: Resonancia;
#X text 21 41 La parte más iconica de un sinte sustractiva es el filtro.
En el caso de moog es un filtro paso bajo tipo escalera (por que el
circuito parace una escalera) y es caracteristico por tener un tono
grueso y calido.;
#X text 21 121 Entrada: Audio de la mezcla de osciladores;
#X connect 0 0 1 0;
#X connect 1 0 2 0;
#X connect 2 0 3 0;
#X connect 3 0 5 0;
#X connect 4 0 3 1;
#X connect 5 0 6 0;
#X connect 6 0 11 0;
#X connect 7 0 8 0;
#X connect 8 0 9 0;
#X connect 9 0 28 2;
#X connect 11 0 28 1;
#X connect 21 0 22 0;
#X connect 22 0 5 1;
#X connect 23 0 22 1;
#X connect 28 0 10 0;
#X connect 30 0 28 0;
#X restore 738 454 pd filter;
#N canvas 7 22 633 444 modulation 0;
#X obj 97 211 receive \$0-modMix;
#X obj 16 390 send~ \$0-modulation;
#X obj 253 246 receive \$0-modAmount;
#X obj 253 318 pack f 20;
#X obj 253 342 line~;
#X obj 16 361 *~;
#X obj 97 235 pack f 20;
#X obj 97 259 line~;
#X obj 16 116 inlet~;
#X obj 49 171 inlet~;
#X obj 253 270 pow 2;
#X obj 253 294 * 48;
#X obj 16 287 crossfade~;
#X text 16 96 Entrada-1: Oscilador 3;
#X text 49 151 Entrada-2: Noise;
#X text 97 191 // Recibe control de mezcla entre OSC3 y Noise (0 a
1);
#X text 253 226 // Recibe cantidad de modulación de 0 a 1;
#X text 293 270 <- Cambia la curva de valores;
#X text 293 294 <- Escala valores de 0 a 48 (MIDI);
#X obj 11 11 cnv 10 440 75 empty empty empty 200 10 0 14 #ffd478 #000000
0;
#X text 16 16 Modulation;
#X text 16 36 En este subpatch \, recibimos la señal del oscilador
3 y noise para enviar una mezcla de estas a modular la frecuencia de
los osciladores y el filtro.;
#X text 156 390 <- Envia a modular la frecuencia de los osciladores
y filtro;
#X connect 0 0 6 0;
#X connect 2 0 10 0;
#X connect 3 0 4 0;
#X connect 4 0 5 1;
#X connect 5 0 1 0;
#X connect 6 0 7 0;
#X connect 7 0 12 2;
#X connect 8 0 12 0;
#X connect 9 0 12 1;
#X connect 10 0 11 0;
#X connect 11 0 3 0;
#X connect 12 0 5 0;
#X restore 828 375 pd modulation;
#N canvas 22 22 847 550 delay 0;
#X obj 12 11 cnv 10 420 85 empty empty empty 330 10 0 14 #ff7d78 #000000
0;
#X obj 449 196 cnv 10 370 50 empty empty empty 330 10 0 14 #ff7d78
#000000 0;
#X obj 11 411 cnv 10 300 100 empty empty empty 330 10 0 14 #ff7d78
#000000 0;
#X obj 12 111 cnv 10 230 50 empty empty empty 265 10 0 14 #72fa78 #000000
0;
#X obj 16 132 inlet~;
#X obj 454 427 *~;
#X obj 487 338 pow 2;
#X obj 487 362 pack f 20;
#X obj 487 386 line~;
#X obj 454 201 delread4~ \$0-delay;
#X obj 179 290 lop~ 4000;
#X obj 16 387 +~;
#X obj 454 456 outlet~;
#X obj 454 172 line~;
#X obj 454 124 receive \$0-delayTime;
#X obj 487 314 receive \$0-delayLevel;
#X obj 126 348 *~;
#X obj 126 225 pack f 20;
#X obj 126 249 line~;
#X obj 126 201 receive \$0-feedback;
#X obj 179 314 hip~ 10;
#X obj 454 148 pack f 100;
#X text 16 112 Entrada: Audio de Sintetizador;
#X text 454 476 Salida: Audio de Delay;
#X obj 16 416 delwrite~ \$0-delay 3000;
#X text 16 436 // Envia la señal al buffer del delay;
#X text 454 103 // Establece el tiempo de delay (10 a 3000 ms);
#X text 16 456 Declara nombre de delay (\$0-delay);
#X text 16 476 y tiempo maximo de buffer (3000 ms).;
#X text 239 314 <- Highpass en 10 Hz;
#X text 249 290 <- Lowpass en 4 kHz;
#X text 126 161 // Establece el nivel de retroalimentación;
#X text 126 181 (0 a 0.99);
#X text 527 338 <- Cambia curva del volumen;
#X text 464 221 // Recibe la señal con el delay establecido en ms
;
#X text 16 12 DELAY;
#X text 179 334 // Los filtros en el loop de \; retroalimentación
hacen que con cada \; repetición se filtre más y obtener \; un delay
con tonos más opacos y \; no tan brillantes \;;
#X text 16 32 Efecto de delay (también conocido como "Eco") ayuda
a brindar versatilidad a nuestro sintetizador para simular espacios
\, crear ritmos con las repeticiones o hasta ser un looper.;
#X text 487 294 // Controla el volumen del delay (0 a 1);
#X connect 4 0 11 0;
#X connect 5 0 12 0;
#X connect 6 0 7 0;
#X connect 7 0 8 0;
#X connect 8 0 5 1;
#X connect 9 0 10 0;
#X connect 9 0 5 0;
#X connect 10 0 20 0;
#X connect 11 0 24 0;
#X connect 13 0 9 0;
#X connect 14 0 21 0;
#X connect 15 0 6 0;
#X connect 16 0 11 1;
#X connect 17 0 18 0;
#X connect 18 0 16 0;
#X connect 19 0 17 0;
#X connect 20 0 16 1;
#X connect 21 0 13 0;
#X restore 788 524 pd delay;
#X text 903 141 Salida-1: Pitch (MIDI);
#N canvas 18 22 856 756 oscillator-3 0;
#X obj 11 688 cnv 10 500 125 empty empty empty 20 12 0 14 #75d5ff #404040
0;
#X obj 18 695 oscillator~;
#X obj 18 778 multiplexer~;
#X obj 18 101 receive \$0-pitch;
#X obj 18 381 +~;
#X obj 36 288 - 2;
#X obj 36 312 * 12;
#X obj 36 336 sig~;
#X obj 228 362 pack f 20;
#X obj 228 386 line~;
#X obj 18 405 +~;
#X obj 18 458 mtof~;
#X obj 77 642 pack f 20;
#X obj 77 666 line~;
#X obj 18 429 +~;
#X obj 228 338 / 100;
#X obj 18 155 lop~;
#X obj 43 131 receive \$0-glide;
#X text 36 224 // Recibe la info de los controles de octave y tune
para afinar el oscilador usando octavas y cents.;
#X text 78 338 convierte a cents ->;
#X text 68 313 <- convierte a octava;
#X text 217 618 <- Cambia el ancho de pulso de la onda cuadrada;
#X text 58 155 <- [lop~] puede ser usado como un [line~] pero la manera
en la que conecta los valores es más logarítmico.;
#X text 108 695 <- Oscilador tipo polyBLEP libre de Aliasing (suena
más análogo);
#X text 108 778 <- multiplexor: Entran tres señales y eliges cuál
quieres que salga.;
#X obj 36 264 receive \$0-octave-3;
#X obj 228 314 receive \$0-tune-3;
#X obj 77 618 receive \$0-pulse-3;
#X obj 99 749 receive \$0-waveform-3;
#X obj 214 539 pack f 20;
#X obj 214 563 line~;
#X obj 214 491 receive \$0-tune-3;
#X obj 18 582 *~;
#X obj 36 510 receive \$0-osc3Control;
#X obj 36 534 t f f;
#X obj 214 515 / 10;
#X obj 88 582 *~;
#X obj 18 616 +~;
#X obj 88 558 == 0;
#X text 66 460 // Prende/Apaga el control de teclado del Oscilador
para usarlo como LFO;
#X text 168 101 <- Recibe la información del pitch (en MIDI) y crea
un portamento \, glissando o "glide" de la nota usando [lop~];
#X obj 11 8 cnv 10 450 85 empty empty empty 20 12 0 14 #75d5ff #404040
0;
#X text 18 11 Oscilador;
#X obj 357 309 cnv 10 420 130 empty empty empty 200 10 0 14 #ffd478
#000000 0;
#X obj 361 352 receive~ \$0-modulation;
#X obj 361 410 *~;
#X obj 379 381 receive \$0-oscMod;
#X text 361 312 // Recibe la señal del modulador y prende/apaga usando
el toggle de "oscMod";
#X obj 202 816 cnv 10 190 40 empty empty empty 200 10 0 14 #ffd478
#000000 0;
#X text 18 857 También enviamos la señal del oscilador 3 como modulador.
;
#X obj 11 816 cnv 10 190 40 empty empty empty 290 10 0 14 #ff89d8 #000000
0;
#X obj 18 827 outlet~;
#X text 78 827 <- Salida de Oscilador hacia mezcladora;
#X text 518 675 [oscillator~];
#X text 528 695 Entrada-1: Frecuencia en Hz;
#X text 528 715 Entrada-2: Pulso de forma de onda cuadrada;
#X text 538 735 (0 a 1);
#X text 528 755 Salida-1: Diente de Sierra;
#X text 528 775 Salida-2: Onda Cuadrada;
#X text 528 795 Salida-3: Onda Triangular;
#X text 18 31 De manera general \, lo que sucede es que recibimos todos
los controles de afinación y control de pitch del oscilador para luego
enviar las tres formas del oscilador a un multiplexor (selector de
onda) y para luego enviarlas a la mezcladora.;
#X connect 1 0 2 0;
#X connect 1 1 2 1;
#X connect 1 2 2 2;
#X connect 2 0 51 0;
#X connect 3 0 16 0;
#X connect 4 0 10 0;
#X connect 5 0 6 0;
#X connect 6 0 7 0;
#X connect 7 0 4 1;
#X connect 8 0 9 0;
#X connect 9 0 10 1;
#X connect 10 0 14 0;
#X connect 11 0 32 0;
#X connect 12 0 13 0;
#X connect 13 0 1 1;
#X connect 14 0 11 0;
#X connect 15 0 8 0;
#X connect 16 0 4 0;
#X connect 17 0 16 1;
#X connect 25 0 5 0;
#X connect 26 0 15 0;
#X connect 27 0 12 0;
#X connect 28 0 2 3;
#X connect 29 0 30 0;
#X connect 30 0 36 1;
#X connect 31 0 35 0;
#X connect 32 0 37 0;
#X connect 33 0 34 0;
#X connect 34 0 32 1;
#X connect 34 1 38 0;
#X connect 35 0 29 0;
#X connect 36 0 37 1;
#X connect 37 0 1 0;
#X connect 38 0 36 0;
#X connect 44 0 45 0;
#X connect 45 0 14 1;
#X connect 46 0 45 1;
#X restore 773 288 pd oscillator-3;
#X obj 729 576 cnv 10 380 110 empty empty OUTPUT 325 10 0 14 #9f9f9f
#000000 0;
#X obj 738 655 dac~ 1 2;
#N canvas 3 22 592 437 drive 0;
#X obj 163 103 cnv 10 150 50 empty empty empty 330 10 0 14 #ff7d78
#000000 0;
#X obj 12 306 cnv 10 550 50 empty empty empty 325 10 0 14 #9f9f9f #000000
0;
#X obj 12 103 cnv 10 150 50 empty empty empty 265 10 0 14 #72fa78 #000000
0;
#X obj 17 128 inlet~;
#X obj 17 282 *~;
#X obj 17 316 expr~ tanh($v1);
#X obj 17 360 outlet~;
#X obj 35 205 receive \$0-drive;
#X obj 35 229 pack f 20;
#X obj 35 253 line~;
#X text 35 165 // Establece el nivel de distorsión (1 a 100);
#X text 35 185 Convertido a (0 a 40 dB);
#X obj 11 11 cnv 10 400 70 empty empty empty 325 10 0 14 #9f9f9f #000000
0;
#X text 17 18 DRIVE;
#X text 127 316 <- La función de la tangente hyperbolica presenta
un tipo de distorsión más suave y gradual que el objeto [clip~];
#X text 17 38 Distorsión suave tipo analoga usando la función de
la tangente hyperbolica con un Gain/Drive de hasta 40 dB.;
#X text 17 380 Salida a Control de Volumen;
#X text 17 108 Entrada: audio de sintetizador y delay;
#X connect 3 0 4 0;
#X connect 4 0 5 0;
#X connect 5 0 6 0;
#X connect 7 0 8 0;
#X connect 8 0 9 0;
#X connect 9 0 4 1;
#X restore 738 587 pd drive;
#N canvas 17 22 836 756 oscillator-2 0;
#X obj 11 568 cnv 10 500 125 empty empty empty 20 12 0 14 #75d5ff #404040
0;
#X obj 18 575 oscillator~;
#X obj 18 658 multiplexer~;
#X obj 18 101 receive \$0-pitch;
#X obj 18 381 +~;
#X obj 36 288 - 2;
#X obj 36 312 * 12;
#X obj 36 336 sig~;
#X obj 228 362 pack f 20;
#X obj 228 386 line~;
#X obj 18 405 +~;
#X obj 18 458 mtof~;
#X obj 77 522 pack f 20;
#X obj 77 546 line~;
#X obj 18 429 +~;
#X obj 228 338 / 100;
#X obj 18 155 lop~;
#X obj 43 131 receive \$0-glide;
#X text 36 224 // Recibe la info de los controles de octave y tune
para afinar el oscilador usando octavas y cents.;
#X text 78 338 convierte a cents ->;
#X text 68 313 <- convierte a octava;
#X text 217 498 <- Cambia el ancho de pulso de la onda cuadrada;
#X text 58 155 <- [lop~] puede ser usado como un [line~] pero la manera
en la que conecta los valores es más logarítmico.;
#X text 108 575 <- Oscilador tipo polyBLEP libre de Aliasing (suena
más análogo);
#X text 108 658 <- multiplexor: Entran tres señales y eliges cuál
quieres que salga.;
#X text 68 458 <- Convierte valores MIDI a frecuencia (Hz);
#X text 168 101 <- Recibe la información del pitch (en MIDI) y crea
un portamento \, glissando o "glide" de la nota usando [lop~];
#X obj 77 498 receive \$0-pulse-2;
#X obj 99 629 receive \$0-waveform-2;
#X obj 228 314 receive \$0-tune-2;
#X obj 36 264 receive \$0-octave-2;
#X obj 11 8 cnv 10 450 85 empty empty empty 20 12 0 14 #75d5ff #404040
0;
#X text 18 11 Oscilador;
#X obj 357 309 cnv 10 455 140 empty empty empty 200 10 0 14 #ffd478
#000000 0;
#X obj 361 352 receive~ \$0-modulation;
#X obj 361 410 *~;
#X obj 379 381 receive \$0-oscMod;
#X text 361 312 // Recibe la señal del modulador y prende/apaga usando
el toggle de "oscMod";
#X text 391 410 <- Este tipo de modulación es exponencial por sumarse
antes del mtof~;
#X obj 11 696 cnv 10 380 40 empty empty empty 290 10 0 14 #ff89d8 #000000
0;
#X obj 18 707 outlet~;
#X text 78 707 <- Salida de Oscilador hacia mezcladora;
#X text 518 555 [oscillator~];
#X text 528 575 Entrada-1: Frecuencia en Hz;
#X text 528 595 Entrada-2: Pulso de forma de onda cuadrada;
#X text 538 615 (0 a 1);
#X text 528 635 Salida-1: Diente de Sierra;
#X text 528 655 Salida-2: Onda Cuadrada;
#X text 528 675 Salida-3: Onda Triangular;
#X text 18 31 De manera general \, lo que sucede es que recibimos todos
los controles de afinación y control de pitch del oscilador para luego
enviar las tres formas del oscilador a un multiplexor (selector de
onda) y para luego enviarlas a la mezcladora.;
#X text 228 284 // Tune (-1200 a 1200 cents);
#X connect 1 0 2 0;
#X connect 1 1 2 1;
#X connect 1 2 2 2;
#X connect 2 0 40 0;
#X connect 3 0 16 0;
#X connect 4 0 10 0;
#X connect 5 0 6 0;
#X connect 6 0 7 0;
#X connect 7 0 4 1;
#X connect 8 0 9 0;
#X connect 9 0 10 1;
#X connect 10 0 14 0;
#X connect 11 0 1 0;
#X connect 12 0 13 0;
#X connect 13 0 1 1;
#X connect 14 0 11 0;
#X connect 15 0 8 0;
#X connect 16 0 4 0;
#X connect 17 0 16 1;
#X connect 27 0 12 0;
#X connect 28 0 2 3;
#X connect 29 0 15 0;
#X connect 30 0 5 0;
#X connect 34 0 35 0;
#X connect 35 0 14 1;
#X connect 36 0 35 1;
#X restore 755 264 pd oscillator-2;
#X text 733 31 Entrada de Teclado MIDI con procesador monofonico;
#X text 903 161 Salida-2: Gate (0/1);
#X text 903 101 Entrada-1: Nota MIDI;
#X text 903 121 Entrada-2: Velocidad;
#X text 893 81 [mono.in];
#X floatatom 789 83 5 0 0 0 - - - 0;
#X floatatom 743 83 5 0 0 0 - - - 0;
#N canvas 0 22 450 278 (subpatch) 0;
#X array \$0-scope 4410 float 0;
#X coords 0 1 4409 -1 50 140 1 0 0;
#X restore 645 203 graph;
#X obj 526 564 loadbang;
#X msg 526 588 1;
#X obj 23 494 loadbang;
#X msg 23 518 dsp 1;
#X obj 23 542 send pd;
#X obj 526 612 metro 100;
#X obj 526 636 tabwrite~ \$0-scope;
#X text 850 50 <- Entrada de Notas MIDI;
#N canvas 215 217 893 561 rangos 0;
#X text 9 11 Rangos:;
#X text 19 151 Oscillator Bank;
#X text 19 261 Mixer;
#X text 419 71 se traduce a (110 Hz a 8.8 kHz);
#X text 419 131 se traduce a (0 Hz a 8.8 kHz);
#X text 29 171 * Octave (0 a 4) se escala a (-24 a 24 semitonos);
#X text 29 191 * Tune (-1200 a 1200 cents);
#X text 29 211 * Waveform (0 a 2);
#X text 29 231 * Pulse Width (0.01 a 0.99) Lineal;
#X text 409 51 * Cutoff (45 a 121 MIDI) Lineal;
#X text 29 281 * Level y Noise (0 a 1) Lineal;
#X text 409 91 * Resonance (0 a 4) Lineal;
#X text 409 111 * Env. Amount (0 a 121 MIDI) Lineal;
#X text 399 31 Filter;
#X text 399 161 Amplifier Envelope y Modifier Envelope;
#X text 409 181 * Attack (1 a 5000 ms) Logaritmico;
#X text 409 201 * Decay y Release (1 a 5000 ms) Logaritmico;
#X text 409 221 * Sustain (0 a 1) Lineal;
#X text 29 61 * Octave (0 a 4) se escala a (-24 a 24 semitonos);
#X text 19 41 Modulation;
#X restore 23 592 pd rangos;
#X text 738 200 Abre cada subpatch para una explicación de cada componente.
;
#X text 23 474 // Enciende el DSP al cargar el patch;
#X text 23 572 // Abre este patch para conocer los rangos de cada parametro
;
#X text 23 404 // Crea un camino hacia la carpeta de abstracciones
para usarlas;
#X text 526 544 // Osciloscopio de 100 ms;
#N canvas 2 22 602 498 ampEnvelope 0;
#X obj 16 11 cnv 10 450 60 empty empty empty 265 10 0 14 #72fa78 #000000
0;
#X obj 21 413 *~;
#X obj 21 101 inlet~;
#X obj 56 379 cnv 10 400 30 empty empty empty 265 10 0 14 #72fa78 #000000
0;
#X obj 71 384 en.adsr~;
#X obj 71 171 receive \$0-gate;
#X obj 97 302 t f f;
#X text 84 211 // Recibe los controles del envolvente \, en el minimoog
el control de Decay y Release es el mismo.;
#X text 141 384 <- Generador de envolvente tipo ADSR.;
#X text 21 81 Entrada: Audio del Filtro;
#X text 21 16 Amp. Envelope;
#X text 21 36 Envolvente dedicado a controlar la amplitud (volumen)
de la señal filtrada antes de ser enviada al delay y output.;
#X obj 11 438 cnv 10 190 40 empty empty empty 330 10 0 14 #ff7d78 #000000
0;
#X obj 202 438 cnv 10 190 40 empty empty empty 325 10 0 14 #9f9f9f
#000000 0;
#X obj 21 447 outlet~;
#X text 81 447 <- Salida al delay y output;
#X text 281 254 [en.adsr~];
#X text 291 274 Entrada-1: Gate (0/1);
#X text 71 131 // Recibe el gate del control del teclado para activar
el envolvente. 1 = Encencido \, 0 = Apagado;
#X text 291 294 Entrada-2: Ataque en milisegundos;
#X text 291 314 Entrada-3: Decay en milisegundos;
#X text 291 334 Entrada-4: Sustain en amplitud de 0 a 1;
#X text 291 354 Entrada-5: Release en milisegundos;
#X obj 84 251 receive \$0-attack;
#X obj 97 278 receive \$0-decay;
#X obj 110 331 receive \$0-sustain;
#X obj 110 355 sqrt;
#X connect 1 0 14 0;
#X connect 2 0 1 0;
#X connect 4 0 1 1;
#X connect 5 0 4 0;
#X connect 6 0 4 2;
#X connect 6 1 4 4;
#X connect 23 0 4 1;
#X connect 24 0 6 0;
#X connect 25 0 26 0;
#X connect 26 0 4 3;
#X restore 738 483 pd ampEnvelope;
#X obj 738 548 +~;
#X text 888 244 Nuestra fuente de sonido \; son 3 osciladores con forma
\; de onda variable y opciones de \; control de pitch.;
#X text 959 379 Mezcla de modulación.;
#X text 882 341 Mezcla de osciladores al filtro.;
#X text 924 426 Filtro y envolventes \; uno modula el filtro y \; el
otro la amplitud de la \; salida.;
#X text 958 529 Efecto de Delay con \; retroalimentacion.;
#X text 874 599 Distorsión y control de volumen \; para la salida
final.;
#N canvas 1 22 592 437 volume 0;
#X obj 17 128 inlet~;
#X obj 17 306 *~;
#X obj 17 344 outlet~;
#X obj 35 253 pack f 20;
#X obj 35 277 line~;
#X obj 11 21 cnv 10 440 70 empty empty empty 325 10 0 14 #9f9f9f #000000
0;
#X obj 35 205 receive \$0-volume;
#X obj 35 229 pow 2;
#X text 17 364 Salida Final;
#X text 17 108 Entrada: Audio de distorsión;
#X text 35 185 // Establece el volumen;
#X text 110 224 <- Este objeto crea una curva de volumen logaritmica
(mas natural al oyente);
#X text 100 268 <- Suaviza los valores escalonados con un valor de
20 ms para evitar clicks.;
#X text 17 27 OUTPUT VOLUME;
#X text 17 48 Control de volumen de la salida final \, también conocido
como "Master Output".;
#X connect 0 0 1 0;
#X connect 1 0 2 0;
#X connect 3 0 4 0;
#X connect 4 0 1 1;
#X connect 6 0 7 0;
#X connect 7 0 3 0;
#X restore 738 617 pd volume;
#X obj 770 51 key.notein;
#X connect 56 0 57 0;
#X connect 56 1 58 0;
#X connect 59 0 62 0;
#X connect 60 0 64 1;
#X connect 60 0 62 3;
#X connect 61 0 63 1;
#X connect 62 0 63 0;
#X connect 63 0 94 0;
#X connect 65 0 95 1;
#X connect 67 0 64 0;
#X connect 67 0 62 2;
#X connect 70 0 102 0;
#X connect 71 0 62 1;
#X connect 77 0 56 1;
#X connect 78 0 56 0;
#X connect 80 0 81 0;
#X connect 81 0 85 0;
#X connect 82 0 83 0;
#X connect 83 0 84 0;
#X connect 85 0 86 0;
#X connect 94 0 95 0;
#X connect 94 0 65 0;
#X connect 95 0 70 0;
#X connect 102 0 69 0;
#X connect 102 0 69 1;
#X connect 102 0 86 0;
#X connect 103 0 78 0;
#X connect 103 1 77 0;
#X coords 0 -1 1 1 698 347 2 10 10;
