#N canvas 0 22 1255 773 12;
#X declare -path ./abs;
#X obj 166 13 cnv 10 366 168 empty empty empty 20 12 0 14 #75d5ff #404040
0;
#X obj 515 184 cnv 10 190 170 empty empty empty 20 12 0 14 #bbbbbb
#404040 0;
#X obj 13 184 cnv 10 368 170 empty empty empty 20 12 0 14 #72fa78 #404040
0;
#X obj 384 184 cnv 10 128 170 empty empty empty 20 12 0 14 #ff7d78
#404040 0;
#X obj 13 13 cnv 10 150 168 empty empty empty 20 12 0 14 #ffd478 #404040
0;
#X obj 535 13 cnv 10 170 168 empty empty empty 20 12 0 14 #ff84ff #404040
0;
#X obj 353 53 hradio 19 1 1 3 \$0-waveform-1 empty Waveform 0 -8 0
12 #404040 #ffffff #000000 0;
#X obj 173 53 hradio 19 1 1 5 \$0-octave-1 empty Octave 0 -8 0 12 #404040
#ffffff #000000 2;
#X obj 283 53 nbx 4 19 -1200 1200 0 1 \$0-tune-1 empty Tune 0 -8 0
12 #404040 #ffffff #000000 0 256;
#X obj 426 53 hsl 101 19 0.01 0.99 0 1 \$0-pulse-1 empty Pulse\\\ Width
-2 -8 0 12 #404040 #ffffff #000000 6000 1;
#X obj 546 53 hsl 101 19 0 1 0 1 \$0-level-1 empty Level -2 -8 0 12
#404040 #ffffff #000000 10000 1;
#X obj 353 103 hradio 19 1 1 3 \$0-waveform-2 empty Waveform 0 -8 0
12 #404040 #ffffff #000000 0;
#X obj 173 103 hradio 19 1 1 5 \$0-octave-2 empty Octave 0 -8 0 12
#404040 #ffffff #000000 2;
#X obj 283 103 nbx 4 19 -1200 1200 0 1 \$0-tune-2 empty Tune 0 -8 0
12 #404040 #ffffff #000000 15 256;
#X obj 426 103 hsl 101 19 0.01 0.99 0 1 \$0-pulse-2 empty Pulse\\\ Width
-2 -8 0 12 #404040 #ffffff #000000 5900 1;
#X obj 546 103 hsl 101 19 0 1 0 1 \$0-level-2 empty Level -2 -8 0 12
#404040 #ffffff #000000 10000 1;
#X obj 353 153 hradio 19 1 1 3 \$0-waveform-3 empty Waveform 0 -8 0
12 #404040 #ffffff #000000 0;
#X obj 173 153 hradio 19 1 1 5 \$0-octave-3 empty Octave 0 -8 0 12
#404040 #ffffff #000000 2;
#X obj 283 153 nbx 4 19 -1200 1200 0 1 \$0-tune-3 empty Tune 0 -8 0
12 #404040 #ffffff #000000 20 256;
#X obj 426 153 hsl 101 19 0.01 0.99 0 1 \$0-pulse-3 empty Pulse\\\ Width
-2 -8 0 12 #404040 #ffffff #000000 0 1;
#X obj 546 153 hsl 101 19 0 1 0 1 \$0-level-3 empty Level -2 -8 0 12
#404040 #ffffff #000000 10000 1;
#X obj 26 223 hsl 101 19 45 121 0 1 \$0-cutoff empty Cutoff -2 -8 0
12 #404040 #ffffff #000000 1100 1;
#X obj 146 223 hsl 101 19 0 4 0 1 \$0-resonance empty Resonance -2
-8 0 12 #404040 #ffffff #000000 0 1;
#X obj 266 223 hsl 101 19 0 121 0 1 \$0-envAmount empty Env.\\\ Amount
-2 -8 0 12 #404040 #ffffff #000000 4800 1;
#X obj 26 263 hsl 101 19 1 5000 1 1 \$0-modAttack empty Attack -2 -8
0 12 #404040 #ffffff #000000 0 1;
#X obj 146 263 hsl 101 19 10 10000 1 1 \$0-modDecay empty Decay\\\ &\\\ Rel.
-2 -8 0 12 #404040 #ffffff #000000 5700 1;
#X obj 266 263 hsl 101 19 0 1 0 1 \$0-modSustain empty Sustain -2 -8
0 12 #404040 #ffffff #000000 0 1;
#X obj 26 323 hsl 101 19 1 5000 1 1 \$0-Attack empty Attack -2 -8 0
12 #404040 #ffffff #000000 0 1;
#X obj 146 323 hsl 101 19 10 10000 1 1 \$0-Decay empty Decay\\\ &\\\ Rel.
-2 -8 0 12 #404040 #ffffff #000000 2300 1;
#X obj 266 323 hsl 101 19 0 1 0 1 \$0-Sustain empty Sustain -2 -8 0
12 #404040 #ffffff #000000 6800 1;
#X text 22 285 Amp. Env –––––––––––––––––––––––––––––––––––––––––
;
#X text 22 185 Filter –––––––––––––––––––––––––––––––––––––––––––
;
#X text 172 15 Oscillator Bank ––––––––––––––––––––––––––––––––––
;
#X obj 660 61 vsl 19 101 0 1 0 0 \$0-noise empty Noise 0 -9 0 12 #404040
#ffffff #000000 0 1;
#X text 542 15 Mixer ––––––––––––––––
;
#X obj 26 133 hsl 101 19 0 1 0 1 \$0-modMix empty Mod\\\ Mix:\\\ OSC3/Noise
-2 -8 0 12 #404040 #ffffff #000000 0 1;
#X obj 26 93 hsl 101 19 0 1 0 1 \$0-modAmount empty Mod\\\ Amount -2
-8 0 12 #404040 #ffffff #000000 0 1;
#X obj 527 223 hsl 101 19 0 1 0 1 \$0-volume empty Volume -2 -8 0 12
#404040 #ffffff #000000 10000 1;
#X obj 527 263 hsl 101 19 1 100 1 1 \$0-drive empty Drive -2 -8 0 12
#404040 #ffffff #000000 0 1;
#X obj 23 53 tgl 19 1 \$0-oscMod empty Osc\\\ Mod 0 -8 0 12 #ffc7c6
#000000 #000000 0 1;
#X obj 83 53 tgl 19 1 \$0-filterMod empty Filter\\\ Mod 0 -8 0 12 #ffc7c6
#000000 #000000 0 1;
#X obj 173 126 tgl 11 1 \$0-osc3Control empty Osc\\\ 3\\\ Control 15
5 0 10 #ffc7c6 #000000 #000000 1 1;
#X obj 395 223 hsl 101 19 0 1 0 1 \$0-delayLevel empty Level -2 -8
0 12 #404040 #ffffff #000000 0 1;
#X obj 395 263 hsl 101 19 10 1000 1 1 \$0-delayTime empty Delay\\\ Time
-2 -8 0 12 #404040 #ffffff #000000 0 1;
#X text 391 185 Delay –––––––––;
#X text 523 185 Output –––––––––;
#X obj 527 303 hsl 101 19 10000 1 1 1 \$0-glide empty Glide -2 -8 0
12 #404040 #ffffff #000000 0 1;
#X text 22 15 Modulation ––––––––;
#X obj 395 303 hsl 101 19 0 0.9999 0 1 \$0-feedback empty Feedback
-2 -8 0 12 #404040 #ffffff #000000 7000 1;
#X obj 730 327 cnv 10 380 80 empty empty MEZCLADORA 290 10 0 14 #ff89d8
#000000 0;
#X obj 729 513 cnv 10 380 50 empty empty DELAY 330 10 0 14 #ff7d78
#000000 0;
#X obj 728 10 cnv 10 380 180 empty empty TECLADO 310 10 0 14 #feffc6
#000000 0;
#X obj 23 444 declare -path ./abs;
#X obj 820 362 cnv 10 290 45 empty empty MODULACION 200 10 0 14 #ffd478
#000000 0;
#X obj 730 410 cnv 10 380 100 empty empty FILTRO\\\ Y\\\ ENVs 265 10
0 14 #72fa78 #000000 0;
#X obj 729 224 cnv 10 380 100 empty empty OSCILADORES 280 10 0 14 #75d5ff
#000000 0;
#X obj 743 111 mono.in;
#X obj 743 169 send \$0-pitch;
#X obj 789 140 send \$0-gate;
#N canvas 1101 22 819 759 oscillator-1 0;
#X obj 11 568 cnv 10 500 125 empty empty empty 20 12 0 14 #75d5ff #404040
0;
#X obj 18 575 oscillator~;
#X obj 18 658 multiplexer~;
#X obj 18 381 +~;
#X obj 36 264 receive \$0-octave-1;
#X obj 36 288 - 2;
#X obj 36 312 * 12;
#X obj 36 336 sig~;
#X obj 228 314 receive \$0-tune-1;
#X obj 228 362 pack f 20;
#X obj 228 386 line~;
#X obj 18 405 +~;
#X obj 18 458 mtof~;
#X obj 18 707 outlet~;
#X obj 77 498 receive \$0-pulse-1;
#X obj 77 522 pack f 20;
#X obj 77 546 line~;
#X obj 18 429 +~;
#X obj 361 352 receive~ \$0-modulation;
#X obj 361 410 *~;
#X obj 379 381 receive \$0-oscMod;
#X obj 228 338 / 100;
#X text 36 224 // Recibe la info de los controles de octave y tune
para afinar el oscilador usando octavas y cents.;
#X text 78 338 convierte a cents ->;
#X text 68 313 <- convierte a octava;
#X obj 99 629 receive \$0-waveform-1;
#X text 217 498 <- Cambia el ancho de pulso de la onda cuadrada;
#X text 361 312 // Recibe la señal del modulador y prende/apaga usando
el toggle de "oscMod";
#X text 108 575 <- Oscilador tipo polyBLEP libre de Aliasing (suena
más análogo);
#X text 108 658 <- multiplexor: Entran tres señales y eliges cuál
quieres que salga.;
#X text 78 707 <- Salida-1: Audio del Oscilador;
#X text 68 458 <- Convierte valores MIDI a frecuencia (Hz);
#X text 391 410 <- Este tipo de modulación es exponencial por sumarse
antes del mtof~;
#X obj 11 8 cnv 10 450 85 empty empty empty 20 12 0 14 #75d5ff #404040
0;
#X obj 18 101 receive \$0-pitch;
#X obj 18 155 lop~;
#X obj 43 131 receive \$0-glide;
#X text 58 155 <- [lop~] puede ser usado como un [line~] pero la manera
en la que conecta los valores es más logarítmico.;
#X text 168 101 <- Recibe la información del pitch (en MIDI) y crea
un portamento \, glissando o "glide" de la nota usando [lop~];
#X text 18 11 Oscilador;
#X text 18 31 De manera general \, todos los controles de afinación
y control de pitch del oscilador para luego enviar las tres formas
del oscilador a un multiplexor y enviarlas a la mezcladora.;
#X connect 1 0 2 0;
#X connect 1 1 2 1;
#X connect 1 2 2 2;
#X connect 2 0 13 0;
#X connect 3 0 11 0;
#X connect 4 0 5 0;
#X connect 5 0 6 0;
#X connect 6 0 7 0;
#X connect 7 0 3 1;
#X connect 8 0 21 0;
#X connect 9 0 10 0;
#X connect 10 0 11 1;
#X connect 11 0 17 0;
#X connect 12 0 1 0;
#X connect 14 0 15 0;
#X connect 15 0 16 0;
#X connect 16 0 1 1;
#X connect 17 0 12 0;
#X connect 18 0 19 0;
#X connect 19 0 17 1;
#X connect 20 0 19 1;
#X connect 21 0 9 0;
#X connect 25 0 2 3;
#X connect 34 0 35 0;
#X connect 35 0 3 0;
#X connect 36 0 35 1;
#X restore 738 240 pd oscillator-1;
#X obj 831 333 noise~;
#N canvas 73 320 450 377 modEnvelope 0;
#X obj 42 197 en.adsr~;
#X obj 55 64 receive \$0-modAttack;
#X obj 42 34 receive \$0-gate;
#X obj 68 91 receive \$0-modDecay;
#X obj 68 115 t f f;
#X obj 81 144 receive \$0-modSustain;
#X obj 42 221 *~;
#X obj 244 154 receive \$0-envAmount;
#X obj 244 178 pack f 20;
#X obj 244 202 line~;
#X obj 42 245 outlet~;
#X connect 0 0 6 0;
#X connect 1 0 0 1;
#X connect 2 0 0 0;
#X connect 3 0 4 0;
#X connect 4 0 0 2;
#X connect 4 1 0 4;
#X connect 5 0 0 3;
#X connect 6 0 10 0;
#X connect 7 0 8 0;
#X connect 8 0 9 0;
#X connect 9 0 6 1;
#X restore 798 415 pd modEnvelope;
#N canvas 178 435 1045 413 mixer 0;
#X obj 7 10 cnv 10 410 60 empty empty empty 310 10 0 14 #ff89d8 #000000
0;
#X obj 12 261 *~;
#X obj 40 184 pow 2;
#X obj 40 208 pack f 20;
#X obj 40 232 line~;
#X obj 12 101 inlet~;
#X obj 182 261 *~;
#X obj 210 184 pow 2;
#X obj 210 208 pack f 20;
#X obj 210 232 line~;
#X obj 182 101 inlet~;
#X obj 352 261 *~;
#X obj 380 184 pow 2;
#X obj 380 208 pack f 20;
#X obj 380 232 line~;
#X obj 380 160 receive \$0-level-3;
#X obj 352 101 inlet~;
#X obj 40 160 receive \$0-level-1;
#X obj 210 160 receive \$0-level-2;
#X obj 274 315 +~;
#X obj 274 339 /~ 4;
#X obj 522 261 *~;
#X obj 550 184 pow 2;
#X obj 550 208 pack f 20;
#X obj 550 232 line~;
#X obj 522 101 inlet~;
#X obj 550 160 receive \$0-noise;
#X obj 274 383 outlet~;
#X text 12 81 Entrada-1: Oscilador-1;
#X text 522 81 Entrada-4: White Noise;
#X text 550 140 // Recibe el valor de volumen del slider (de 0 a 1)
;
#X text 630 184 <- Este objeto crea una curva de volumen logaritmica
(mas natural al oyente);
#X text 620 218 <- Suaviza los valores escalonados con un valor de
20 ms para evitar clicks.;
#X text 182 81 Entrada-2: Oscilador-2;
#X text 352 81 Entrada-3: Oscilador-3;
#X text 313 325 <- Suma todas las señales y dividelo entre el numero
total de señales (En este caso 4). Esto para "normalizar" la señal
entrante y que no distorsione.;
#X text 334 383 <- Salida de Audio;
#X text 12 11 Mixer;
#X text 12 31 Aquí controlamos el nivel individual de cada oscilador
y ruido para luego sumarlo y enviarlo a al filtro.;
#X connect 1 0 19 0;
#X connect 2 0 3 0;
#X connect 3 0 4 0;
#X connect 4 0 1 1;
#X connect 5 0 1 0;
#X connect 6 0 19 1;
#X connect 7 0 8 0;
#X connect 8 0 9 0;
#X connect 9 0 6 1;
#X connect 10 0 6 0;
#X connect 11 0 19 1;
#X connect 12 0 13 0;
#X connect 13 0 14 0;
#X connect 14 0 11 1;
#X connect 15 0 12 0;
#X connect 16 0 11 0;
#X connect 17 0 2 0;
#X connect 18 0 7 0;
#X connect 19 0 20 0;
#X connect 20 0 27 0;
#X connect 21 0 19 1;
#X connect 22 0 23 0;
#X connect 23 0 24 0;
#X connect 24 0 21 1;
#X connect 25 0 21 0;
#X connect 26 0 22 0;
#X restore 738 365 pd mixer;
#N canvas 199 458 493 330 filter 0;
#X obj 118 238 bob~;
#X obj 130 25 receive \$0-cutoff;
#X obj 130 49 pack f 20;
#X obj 130 73 line~;
#X obj 130 107 +~;
#X obj 223 88 inlet~;
#X obj 130 131 +~;
#X obj 286 54 receive~ \$0-modulation;
#X obj 286 112 *~;
#X obj 130 155 mtof~;
#X obj 304 83 receive \$0-filterMod;
#X obj 303 171 receive \$0-resonance;
#X obj 303 195 pack f 20;
#X obj 303 219 line~;
#X obj 16 175 inlet~;
#X obj 118 262 outlet~;
#X obj 130 179 clip~ 20 17000;
#X connect 0 0 15 0;
#X connect 1 0 2 0;
#X connect 2 0 3 0;
#X connect 3 0 4 0;
#X connect 4 0 6 0;
#X connect 5 0 4 1;
#X connect 6 0 9 0;
#X connect 7 0 8 0;
#X connect 8 0 6 1;
#X connect 9 0 16 0;
#X connect 10 0 8 1;
#X connect 11 0 12 0;
#X connect 12 0 13 0;
#X connect 13 0 0 2;
#X connect 14 0 0 0;
#X connect 16 0 0 1;
#X restore 738 444 pd filter;
#N canvas 823 468 450 300 ampEnvelope 0;
#X obj 221 188 en.adsr~;
#X obj 221 26 receive \$0-gate;
#X obj 276 103 t f f;
#X obj 245 55 receive \$0-Attack;
#X obj 276 79 receive \$0-Decay;
#X obj 260 135 receive \$0-Sustain;
#X obj 143 207 *~;
#X obj 143 236 outlet~;
#X obj 143 157 inlet~;
#X obj 260 159 sqrt;
#X connect 0 0 6 1;
#X connect 1 0 0 0;
#X connect 2 0 0 2;
#X connect 2 1 0 4;
#X connect 3 0 0 1;
#X connect 4 0 2 0;
#X connect 5 0 9 0;
#X connect 6 0 7 0;
#X connect 8 0 6 0;
#X connect 9 0 0 3;
#X restore 738 473 pd ampEnvelope;
#N canvas 283 550 583 444 modulation 0;
#X obj 93 236 receive \$0-modMix;
#X obj 12 415 send~ \$0-modulation;
#X obj 249 271 receive \$0-modAmount;
#X obj 249 343 pack f 20;
#X obj 249 367 line~;
#X obj 12 386 *~;
#X obj 93 260 pack f 20;
#X obj 93 284 line~;
#X obj 12 141 inlet~;
#X obj 45 196 inlet~;
#X obj 249 295 pow 2;
#X obj 249 319 * 48;
#X obj 12 312 crossfade~;
#X text 12 121 Entrada-1: Oscilador 3;
#X text 45 176 Entrada-2: Noise;
#X text 93 216 // Recibe control de mezcla entre OSC3 y Noise (0 a
1);
#X text 249 251 // Recibe cantidad de modulación de 0 a 1;
#X text 289 295 <- Cambia la curva de valores;
#X text 289 319 <- Escala valores de 0 a 48 (MIDI);
#X text 152 415 <- Envia modulador a osciladores y filtro;
#X obj 12 41 cnv 10 290 45 empty empty MODULACION 200 10 0 14 #ffd478
#000000 0;
#X connect 0 0 6 0;
#X connect 2 0 10 0;
#X connect 3 0 4 0;
#X connect 4 0 5 1;
#X connect 5 0 1 0;
#X connect 6 0 7 0;
#X connect 7 0 12 2;
#X connect 8 0 12 0;
#X connect 9 0 12 1;
#X connect 10 0 11 0;
#X connect 11 0 3 0;
#X connect 12 0 5 0;
#X restore 828 375 pd modulation;
#N canvas 486 407 824 463 delay 0;
#X obj 35 242 inlet~;
#X obj 343 337 *~;
#X obj 376 248 pow 2;
#X obj 376 272 pack f 20;
#X obj 376 296 line~;
#X obj 343 111 delread4~ \$0-delay;
#X obj 198 200 lop~ 4000;
#X obj 76 297 +~;
#X obj 76 326 delwrite~ \$0-delay 5000;
#X obj 35 376 +~;
#X obj 35 424 outlet~;
#X obj 343 82 line~;
#X obj 343 34 receive \$0-delayTime;
#X obj 376 224 receive \$0-delayLevel;
#X obj 145 258 *~;
#X obj 145 135 pack f 20;
#X obj 145 159 line~;
#X obj 145 111 receive \$0-feedback;
#X text 35 222 inlet;
#X obj 198 224 hip~ 10;
#X obj 343 58 pack f 100;
#X connect 0 0 7 0;
#X connect 0 0 9 0;
#X connect 1 0 9 1;
#X connect 2 0 3 0;
#X connect 3 0 4 0;
#X connect 4 0 1 1;
#X connect 5 0 6 0;
#X connect 5 0 1 0;
#X connect 6 0 19 0;
#X connect 7 0 8 0;
#X connect 9 0 10 0;
#X connect 11 0 5 0;
#X connect 12 0 20 0;
#X connect 13 0 2 0;
#X connect 14 0 7 1;
#X connect 15 0 16 0;
#X connect 16 0 14 0;
#X connect 17 0 15 0;
#X connect 19 0 14 1;
#X connect 20 0 11 0;
#X restore 738 529 pd delay;
#X text 903 141 Salida-1: Pitch (MIDI);
#N canvas 404 69 788 919 oscillator-3 0;
#X obj 11 688 cnv 10 500 125 empty empty empty 20 12 0 14 #75d5ff #404040
0;
#X obj 18 695 oscillator~;
#X obj 18 778 multiplexer~;
#X obj 18 101 receive \$0-pitch;
#X obj 18 381 +~;
#X obj 36 288 - 2;
#X obj 36 312 * 12;
#X obj 36 336 sig~;
#X obj 228 362 pack f 20;
#X obj 228 386 line~;
#X obj 18 405 +~;
#X obj 18 458 mtof~;
#X obj 18 827 outlet~;
#X obj 77 642 pack f 20;
#X obj 77 666 line~;
#X obj 18 429 +~;
#X obj 361 352 receive~ \$0-modulation;
#X obj 361 410 *~;
#X obj 379 381 receive \$0-oscMod;
#X obj 228 338 / 100;
#X obj 18 155 lop~;
#X obj 43 131 receive \$0-glide;
#X text 36 224 // Recibe la info de los controles de octave y tune
para afinar el oscilador usando octavas y cents.;
#X text 78 338 convierte a cents ->;
#X text 68 313 <- convierte a octava;
#X text 217 618 <- Cambia el ancho de pulso de la onda cuadrada;
#X text 361 312 // Recibe la señal del modulador y prende/apaga usando
el toggle de "oscMod";
#X text 58 155 <- [lop~] puede ser usado como un [line~] pero la manera
en la que conecta los valores es más logarítmico.;
#X text 108 695 <- Oscilador tipo polyBLEP libre de Aliasing (suena
más análogo);
#X text 108 778 <- multiplexor: Entran tres señales y eliges cuál
quieres que salga.;
#X text 78 827 <- Salida-1: Audio del Oscilador;
#X obj 36 264 receive \$0-octave-3;
#X obj 228 314 receive \$0-tune-3;
#X obj 77 618 receive \$0-pulse-3;
#X obj 99 749 receive \$0-waveform-3;
#X obj 214 539 pack f 20;
#X obj 214 563 line~;
#X obj 214 491 receive \$0-tune-3;
#X obj 18 582 *~;
#X obj 36 510 receive \$0-osc3Control;
#X obj 36 534 t f f;
#X obj 214 515 / 10;
#X obj 88 582 *~;
#X obj 18 616 +~;
#X obj 88 558 == 0;
#X text 66 460 // Prende/Apaga el control de teclado del Oscilador
para usarlo como LFO;
#X text 168 101 <- Recibe la información del pitch (en MIDI) y crea
un portamento \, glissando o "glide" de la nota usando [lop~];
#X obj 11 8 cnv 10 450 85 empty empty empty 20 12 0 14 #75d5ff #404040
0;
#X text 18 11 Oscilador;
#X text 18 31 De manera general \, todos los controles de afinación
y control de pitch del oscilador para luego enviar las tres formas
del oscilador a un multiplexor y enviarlas a la mezcladora.;
#X text 18 857 También enviamos la señal del oscilador 3 como modulador.
;
#X connect 1 0 2 0;
#X connect 1 1 2 1;
#X connect 1 2 2 2;
#X connect 2 0 12 0;
#X connect 3 0 20 0;
#X connect 4 0 10 0;
#X connect 5 0 6 0;
#X connect 6 0 7 0;
#X connect 7 0 4 1;
#X connect 8 0 9 0;
#X connect 9 0 10 1;
#X connect 10 0 15 0;
#X connect 11 0 38 0;
#X connect 13 0 14 0;
#X connect 14 0 1 1;
#X connect 15 0 11 0;
#X connect 16 0 17 0;
#X connect 17 0 15 1;
#X connect 18 0 17 1;
#X connect 19 0 8 0;
#X connect 20 0 4 0;
#X connect 21 0 20 1;
#X connect 31 0 5 0;
#X connect 32 0 19 0;
#X connect 33 0 13 0;
#X connect 34 0 2 3;
#X connect 35 0 36 0;
#X connect 36 0 42 1;
#X connect 37 0 41 0;
#X connect 38 0 43 0;
#X connect 39 0 40 0;
#X connect 40 0 38 1;
#X connect 40 1 44 0;
#X connect 41 0 35 0;
#X connect 42 0 43 1;
#X connect 43 0 1 0;
#X connect 44 0 42 0;
#X restore 773 288 pd oscillator-3;
#X obj 729 566 cnv 10 380 110 empty empty OUTPUT 325 10 0 14 #9f9f9f
#000000 0;
#X obj 738 645 dac~ 1 2;
#N canvas 241 504 304 195 volume 0;
#X obj 12 55 inlet~;
#X obj 12 103 *~;
#X obj 12 141 outlet~;
#X obj 150 60 pack f 20;
#X obj 150 84 line~;
#X obj 150 12 receive \$0-volume;
#X obj 150 36 pow 2;
#X connect 0 0 1 0;
#X connect 1 0 2 0;
#X connect 3 0 4 0;
#X connect 4 0 1 1;
#X connect 5 0 6 0;
#X connect 6 0 3 0;
#X restore 738 606 pd volume;
#N canvas 241 504 450 300 drive 0;
#X obj 17 47 inlet~;
#X obj 17 91 *~;
#X obj 17 115 expr~ tanh($v1);
#X obj 17 159 outlet~;
#X obj 155 24 receive \$0-drive;
#X obj 155 48 pack f 20;
#X obj 155 72 line~;
#X connect 0 0 1 0;
#X connect 1 0 2 0;
#X connect 2 0 3 0;
#X connect 4 0 5 0;
#X connect 5 0 6 0;
#X connect 6 0 1 1;
#X restore 738 577 pd drive;
#N canvas 349 139 819 741 oscillator-2 0;
#X obj 11 568 cnv 10 500 125 empty empty empty 20 12 0 14 #75d5ff #404040
0;
#X obj 18 575 oscillator~;
#X obj 18 658 multiplexer~;
#X obj 18 101 receive \$0-pitch;
#X obj 18 381 +~;
#X obj 36 288 - 2;
#X obj 36 312 * 12;
#X obj 36 336 sig~;
#X obj 228 362 pack f 20;
#X obj 228 386 line~;
#X obj 18 405 +~;
#X obj 18 458 mtof~;
#X obj 18 707 outlet~;
#X obj 77 522 pack f 20;
#X obj 77 546 line~;
#X obj 18 429 +~;
#X obj 361 352 receive~ \$0-modulation;
#X obj 361 410 *~;
#X obj 379 381 receive \$0-oscMod;
#X obj 228 338 / 100;
#X obj 18 155 lop~;
#X obj 43 131 receive \$0-glide;
#X text 36 224 // Recibe la info de los controles de octave y tune
para afinar el oscilador usando octavas y cents.;
#X text 78 338 convierte a cents ->;
#X text 68 313 <- convierte a octava;
#X text 217 498 <- Cambia el ancho de pulso de la onda cuadrada;
#X text 361 312 // Recibe la señal del modulador y prende/apaga usando
el toggle de "oscMod";
#X text 58 155 <- [lop~] puede ser usado como un [line~] pero la manera
en la que conecta los valores es más logarítmico.;
#X text 108 575 <- Oscilador tipo polyBLEP libre de Aliasing (suena
más análogo);
#X text 108 658 <- multiplexor: Entran tres señales y eliges cuál
quieres que salga.;
#X text 78 707 <- Salida-1: Audio del Oscilador;
#X text 68 458 <- Convierte valores MIDI a frecuencia (Hz);
#X text 391 410 <- Este tipo de modulación es exponencial por sumarse
antes del mtof~;
#X text 168 101 <- Recibe la información del pitch (en MIDI) y crea
un portamento \, glissando o "glide" de la nota usando [lop~];
#X obj 77 498 receive \$0-pulse-2;
#X obj 99 629 receive \$0-waveform-2;
#X obj 228 314 receive \$0-tune-2;
#X obj 36 264 receive \$0-octave-2;
#X obj 11 8 cnv 10 450 85 empty empty empty 20 12 0 14 #75d5ff #404040
0;
#X text 18 11 Oscilador;
#X text 18 31 De manera general \, todos los controles de afinación
y control de pitch del oscilador para luego enviar las tres formas
del oscilador a un multiplexor y enviarlas a la mezcladora.;
#X connect 1 0 2 0;
#X connect 1 1 2 1;
#X connect 1 2 2 2;
#X connect 2 0 12 0;
#X connect 3 0 20 0;
#X connect 4 0 10 0;
#X connect 5 0 6 0;
#X connect 6 0 7 0;
#X connect 7 0 4 1;
#X connect 8 0 9 0;
#X connect 9 0 10 1;
#X connect 10 0 15 0;
#X connect 11 0 1 0;
#X connect 13 0 14 0;
#X connect 14 0 1 1;
#X connect 15 0 11 0;
#X connect 16 0 17 0;
#X connect 17 0 15 1;
#X connect 18 0 17 1;
#X connect 19 0 8 0;
#X connect 20 0 4 0;
#X connect 21 0 20 1;
#X connect 34 0 13 0;
#X connect 35 0 2 3;
#X connect 36 0 19 0;
#X connect 37 0 5 0;
#X restore 755 264 pd oscillator-2;
#X text 733 31 Entrada de Teclado MIDI con procesador monofonico;
#X text 903 161 Salida-2: Gate (0/1);
#X text 903 101 Entrada-1: Nota MIDI;
#X text 903 121 Entrada-2: Velocidad;
#X text 893 81 [mono.in];
#X floatatom 789 83 5 0 0 0 - - - 0;
#X floatatom 743 83 5 0 0 0 - - - 0;
#N canvas 0 22 450 278 (subpatch) 0;
#X array \$0-scope 4410 float 0;
#X coords 0 1 4409 -1 50 140 1 0 0;
#X restore 645 203 graph;
#X obj 526 553 loadbang;
#X msg 526 577 1;
#X obj 23 494 loadbang;
#X msg 23 518 dsp 1;
#X obj 23 542 send pd;
#X obj 526 601 metro 100;
#X obj 526 625 tabwrite~ \$0-scope;
#X text 850 50 <- Entrada de Notas MIDI;
#X obj 770 51 notein;
#N canvas 215 257 893 561 rangos 0;
#X text 9 11 Rangos:;
#X text 19 151 Oscillator Bank;
#X text 19 261 Mixer;
#X text 419 71 se traduce a (110 Hz a 8.8 kHz);
#X text 419 131 se traduce a (0 Hz a 8.8 kHz);
#X text 29 171 * Octave (0 a 4) se escala a (-24 a 24 semitonos);
#X text 29 191 * Tune (-1200 a 1200 cents);
#X text 29 211 * Waveform (0 a 2);
#X text 29 231 * Pulse Width (0.01 a 0.99) Lineal;
#X text 409 51 * Cutoff (45 a 121 MIDI) Lineal;
#X text 29 281 * Level y Noise (0 a 1) Lineal;
#X text 409 91 * Resonance (0 a 4) Lineal;
#X text 409 111 * Env. Amount (0 a 121 MIDI) Lineal;
#X text 399 31 Filter;
#X text 399 161 Amplifier Envelope y Modifier Envelope;
#X text 409 181 * Attack (1 a 5000 ms) Logaritmico;
#X text 409 201 * Decay y Release (1 a 5000 ms) Logaritmico;
#X text 409 221 * Sustain (0 a 1) Lineal;
#X text 29 61 * Octave (0 a 4) se escala a (-24 a 24 semitonos);
#X text 19 41 Modulation;
#X restore 23 592 pd rangos;
#X text 738 200 Abre cada subpatch para una explicación de cada componente.
;
#X text 23 474 // Enciende el DSP al cargar el patch;
#X text 23 572 // Abre este patch para conocer los rangos de cada parametro
;
#X text 23 404 // Crea un camino hacia la carpeta de abstracciones
para usarlas;
#X text 526 533 // Osciloscopio de 100 ms;
#X connect 56 0 57 0;
#X connect 56 1 58 0;
#X connect 59 0 62 0;
#X connect 60 0 65 1;
#X connect 60 0 62 3;
#X connect 61 0 63 1;
#X connect 62 0 63 0;
#X connect 63 0 64 0;
#X connect 64 0 66 0;
#X connect 66 0 72 0;
#X connect 68 0 65 0;
#X connect 68 0 62 2;
#X connect 71 0 70 0;
#X connect 71 0 70 1;
#X connect 71 0 88 0;
#X connect 72 0 71 0;
#X connect 73 0 62 1;
#X connect 79 0 56 1;
#X connect 80 0 56 0;
#X connect 82 0 83 0;
#X connect 83 0 87 0;
#X connect 84 0 85 0;
#X connect 85 0 86 0;
#X connect 87 0 88 0;
#X connect 90 0 80 0;
#X connect 90 1 79 0;
#X coords 0 -1 1 1 698 347 2 10 10;
