#N canvas 68 96 1280 756 12;
#X declare -path ./abs;
#X obj 728 10 cnv 10 380 180 empty empty TECLADO 310 10 0 14 #feffc6
#000000 0;
#X obj 23 444 declare -path ./abs;
#X obj 743 111 mono.in;
#X obj 743 169 send \$0-pitch;
#X obj 789 140 send \$0-gate;
#X text 903 141 Salida-1: Pitch (MIDI);
#X obj 738 675 dac~ 1 2;
#X text 733 31 Entrada de Teclado MIDI con procesador monofonico;
#X text 903 161 Salida-2: Gate (0/1);
#X text 903 101 Entrada-1: Nota MIDI;
#X text 903 121 Entrada-2: Velocidad;
#X text 893 81 [mono.in];
#X floatatom 789 83 5 0 0 0 - - - 0;
#X floatatom 743 83 5 0 0 0 - - - 0;
#X obj 23 494 loadbang;
#X msg 23 518 dsp 1;
#X obj 23 542 send pd;
#X text 850 50 <- Entrada de Notas MIDI;
#N canvas 215 217 893 561 rangos 0;
#X text 9 11 Rangos:;
#X text 19 151 Oscillator Bank;
#X text 19 261 Mixer;
#X text 419 71 se traduce a (110 Hz a 8.8 kHz);
#X text 419 131 se traduce a (0 Hz a 8.8 kHz);
#X text 29 171 * Octave (0 a 4) se escala a (-24 a 24 semitonos);
#X text 29 191 * Tune (-1200 a 1200 cents);
#X text 29 211 * Waveform (0 a 2);
#X text 29 231 * Pulse Width (0.01 a 0.99) Lineal;
#X text 409 51 * Cutoff (45 a 121 MIDI) Lineal;
#X text 29 281 * Level y Noise (0 a 1) Lineal;
#X text 409 91 * Resonance (0 a 4) Lineal;
#X text 409 111 * Env. Amount (0 a 121 MIDI) Lineal;
#X text 399 31 Filter;
#X text 399 161 Amplifier Envelope y Modifier Envelope;
#X text 409 181 * Attack (1 a 5000 ms) Logaritmico;
#X text 409 201 * Decay y Release (1 a 5000 ms) Logaritmico;
#X text 409 221 * Sustain (0 a 1) Lineal;
#X text 29 61 * Octave (0 a 4) se escala a (-24 a 24 semitonos);
#X text 19 41 Modulation;
#X restore 23 592 pd rangos;
#X text 738 200 Abre cada subpatch para una explicación de cada componente.
;
#X text 23 474 // Enciende el DSP al cargar el patch;
#X text 23 572 // Abre este patch para conocer los rangos de cada parametro
;
#X text 23 404 // Crea un camino hacia la carpeta de abstracciones
para usarlas;
#X obj 770 51 key.notein;
#X obj 742 239 r \$0-pitch;
#X obj 742 263 +~ 12;
#X obj 742 317 oscillator~;
#X obj 789 287 sig~ 0.5;
#X obj 742 287 mtof~;
#X obj 742 361 *~ 0.5;
#X obj 742 395 +~;
#X obj 872 239 r \$0-pitch;
#X obj 872 317 oscillator~;
#X obj 919 287 sig~ 0.5;
#X obj 872 287 mtof~;
#X obj 872 263 +~ 0;
#X obj 872 361 *~ 0.5;
#X obj 742 525 bob~;
#X obj 861 438 r \$0-gate;
#X obj 861 510 vline~;
#X obj 861 462 sel 1;
#X obj 991 453 r \$0-gate;
#X obj 991 477 sel 0;
#X msg 991 501 0 1000;
#X obj 786 485 mtof~;
#X obj 786 437 *~ 50;
#X obj 743 549 *~;
#X msg 861 486 1 100 \, 0.5 250 100;
#X obj 786 461 +~ 60;
#X connect 2 0 3 0;
#X connect 2 1 4 0;
#X connect 12 0 2 1;
#X connect 13 0 2 0;
#X connect 14 0 15 0;
#X connect 15 0 16 0;
#X connect 23 0 13 0;
#X connect 23 1 12 0;
#X connect 24 0 25 0;
#X connect 25 0 28 0;
#X connect 26 0 29 0;
#X connect 27 0 26 1;
#X connect 28 0 26 0;
#X connect 29 0 30 0;
#X connect 30 0 37 0;
#X connect 31 0 35 0;
#X connect 32 1 36 0;
#X connect 33 0 32 1;
#X connect 34 0 32 0;
#X connect 35 0 34 0;
#X connect 36 0 30 1;
#X connect 37 0 46 0;
#X connect 38 0 40 0;
#X connect 39 0 45 0;
#X connect 39 0 46 1;
#X connect 40 0 47 0;
#X connect 41 0 42 0;
#X connect 42 0 43 0;
#X connect 43 0 39 0;
#X connect 44 0 37 1;
#X connect 45 0 48 0;
#X connect 46 0 6 0;
#X connect 46 0 6 1;
#X connect 47 0 39 0;
#X connect 48 0 44 0;
#X coords 0 -1 1 1 698 347 2 10 10;
