#N canvas 0 22 1280 756 12;
#X declare -path ./abs;
#X obj 38 20 cnv 10 380 180 empty empty TECLADO 310 10 0 14 #feffc6
#000000 0;
#X obj 44 302 declare -path ./abs;
#X obj 53 121 mono.in;
#X obj 53 179 send \$0-pitch;
#X obj 99 150 send \$0-gate;
#X text 243 151 Salida-1: Pitch (MIDI);
#X obj 530 586 dac~ 1 2;
#X text 43 41 Entrada de Teclado MIDI con procesador monofonico;
#X text 243 171 Salida-2: Gate (0/1);
#X text 243 111 Entrada-1: Nota MIDI;
#X text 243 131 Entrada-2: Velocidad;
#X text 233 91 [mono.in];
#X floatatom 99 93 5 0 0 0 - - - 0;
#X floatatom 53 93 5 0 0 0 - - - 0;
#X obj 44 352 loadbang;
#X msg 44 376 dsp 1;
#X obj 44 400 send pd;
#X text 160 60 <- Entrada de Notas MIDI;
#X text 44 332 // Enciende el DSP al cargar el patch;
#X text 44 262 // Crea un camino hacia la carpeta de abstracciones
para usarlas;
#X obj 80 61 key.notein;
#X text 528 612 Salida de Audio;
#X connect 2 0 3 0;
#X connect 2 1 4 0;
#X connect 12 0 2 1;
#X connect 13 0 2 0;
#X connect 14 0 15 0;
#X connect 15 0 16 0;
#X connect 20 0 13 0;
#X connect 20 1 12 0;
#X coords 0 756 1 755 698 347 0;
